<?xml version="1.0" encoding="utf-8"?>
<svg id="svg2" viewBox="0 0 500 670" xmlns="http://www.w3.org/2000/svg" xmlns:bx="https://boxy-svg.com" width="500px" height="670px"><desc>Source: openclipart.org/detail/209545</desc><defs><bx:export><bx:file format="svg"/><bx:file format="svg" href="#object-0" path="Untitled 2.svg"/></bx:export></defs><rect width="502.334" height="502.53" rx="10" fill="#F6F8FF" x="2.582" y="94.643" style="stroke-width: 1;" id="object-0"/><path d="M 331.354 254.254 L 163.802 254.254 C 157.888 254.254 153.946 250.246 153.946 244.238 C 153.946 238.233 157.888 234.228 163.802 234.228 L 331.354 234.228 C 337.267 234.228 341.211 238.233 341.211 244.238 C 341.211 250.246 337.267 254.254 331.354 254.254 Z" fill="#F2D4B7" style="stroke-width: 1;"/><path d="M 387.927 484.662 L 360.503 457.031 C 367.36 447.157 370.299 436.303 370.299 424.459 C 370.299 391.883 343.851 365.237 312.516 365.237 C 281.173 365.237 253.75 391.883 253.75 424.459 C 253.75 457.031 280.19 483.668 311.536 483.668 C 323.289 483.668 335.036 479.729 343.851 473.809 L 371.271 501.44 C 375.194 505.388 383.025 505.388 386.947 501.44 C 391.839 496.506 391.839 488.609 387.927 484.662 Z" fill="#F2D4B7" style="stroke-width: 1;"/><path d="M 234.722 421.563 C 234.722 377.831 270.843 342.043 313.985 342.043 C 325.02 342.043 335.051 344.03 345.084 348.011 L 345.084 272.46 C 345.084 266.5 341.072 262.527 335.051 262.527 L 184.56 262.527 L 164.493 262.527 C 153.458 262.527 144.421 253.573 144.421 242.639 C 144.421 231.706 153.458 222.765 164.493 222.765 L 335.051 222.765 C 341.072 222.765 345.084 218.786 345.084 212.819 C 345.084 206.859 341.072 202.877 335.051 202.877 L 164.493 202.877 C 142.42 202.877 124.359 220.776 124.359 242.639 L 124.359 441.442 C 124.359 463.312 142.42 481.205 164.493 481.205 L 184.56 481.205 L 262.815 481.205 C 245.757 466.297 234.722 445.422 234.722 421.563 Z" style="stroke-width: 1; fill: rgb(0, 128, 128);"/></svg>