<?xml version="1.0" encoding="utf-8"?>
<svg id="svg2" viewBox="0 0 500 670" xmlns="http://www.w3.org/2000/svg" xmlns:bx="https://boxy-svg.com" width="500px" height="670px"><desc>Source: openclipart.org/detail/209545</desc><defs><bx:export><bx:file format="svg"/><bx:file format="svg" href="#object-0" path="Untitled 2.svg"/><bx:file format="svg" href="#object-1" path="Untitled 3.svg"/><bx:file format="svg" href="#object-2" path="Untitled 4.svg"/><bx:file format="svg" href="#object-3" path="Untitled 5.svg"/></bx:export></defs><rect width="496.341" height="479.755" rx="10" fill="#F6F8FF" x="1.333" y="116.234" style="stroke-width: 1;" id="object-0"/><path d="M 201.472 309.244 L 203.178 309.102 C 203.824 309.028 204.411 308.8 204.901 308.46 L 204.893 308.475 C 206.532 314.018 208.533 319.85 211.037 325.952 C 214.256 333.938 217.415 340.502 220.963 346.833 L 220.475 345.874 C 220.183 350.235 219.829 354.723 219.363 359.072 C 219.144 361.743 218.602 364.238 217.782 366.585 L 217.844 366.37 C 217.7 366.43 217.49 391.317 217.49 391.317 C 217.505 407.548 228.958 421.136 244.352 424.747 L 244.6 424.797 C 245.293 423.055 246.976 421.846 248.962 421.846 L 255.979 421.846 C 257.941 421.868 259.626 423.071 260.325 424.76 L 260.341 424.797 C 276.019 421.174 287.519 407.585 287.579 391.346 C 287.579 391.346 287.15 366.556 286.932 366.385 C 286.255 364.282 285.721 361.817 285.436 359.27 L 285.427 359.093 C 284.998 354.723 284.721 350.347 284.315 345.896 C 287.331 340.544 290.496 333.999 293.286 327.244 L 293.753 325.976 C 296.258 319.871 298.198 314.054 299.898 308.497 C 300.371 308.836 300.958 309.065 301.597 309.132 L 301.605 309.132 L 303.334 309.278 C 305.409 309.494 307.244 307.819 307.41 305.213 L 309.267 282.052 C 309.267 282.036 309.267 282.029 309.267 282.029 C 309.267 280.073 307.778 278.465 305.86 278.229 L 305.838 278.229 L 305.627 278.229 C 306.102 274.856 306.372 270.972 306.372 267.025 C 306.372 258.41 305.078 250.085 302.672 242.254 L 302.83 242.868 C 295.776 227.683 281.796 216.659 264.958 213.58 L 264.642 213.529 C 261.026 212.797 256.805 212.302 252.504 212.184 L 252.391 212.184 L 252.249 212.184 C 247.856 212.272 243.645 212.753 239.562 213.602 L 240.005 213.529 C 222.866 216.693 208.908 227.721 201.946 242.543 L 201.81 242.868 C 199.538 250.064 198.231 258.338 198.231 266.905 C 198.231 270.899 198.516 274.832 199.066 278.672 L 199.011 278.229 C 197.071 278.443 195.567 280.035 195.567 281.978 L 195.567 282.067 L 197.426 305.229 C 197.598 307.886 199.455 309.494 201.457 309.278 L 201.472 309.244 Z" fill="#F7DECE" style="stroke-width: 1;" id="object-1"/><path d="M 383.387 462.522 C 382.531 426.059 378.816 417.808 376.814 412.22 C 376.017 409.977 375.371 394.817 349.855 384.978 C 334.213 378.933 314.02 378.814 296.942 371.729 L 296.942 391.442 C 296.905 412.649 281.427 430.296 260.956 434.141 L 260.679 434.194 C 260.302 436.378 258.392 438.01 256.106 438.031 L 255.887 438.031 L 255.887 452.903 C 255.887 467.445 267.89 479.217 282.699 479.217 C 297.513 479.217 309.516 467.445 309.516 452.903 L 309.516 442.519 C 302.085 441.427 296.453 435.211 296.453 427.705 C 296.453 419.439 303.282 412.736 311.705 412.736 C 320.119 412.736 326.955 419.439 326.955 427.705 C 326.955 434.253 322.661 439.818 316.697 441.855 L 316.592 441.892 L 316.592 452.903 L 316.592 453.464 C 316.592 471.842 301.409 486.738 282.691 486.738 C 263.965 486.738 248.79 471.842 248.79 453.464 C 248.79 453.266 248.79 453.074 248.79 452.866 L 248.79 452.89 L 248.79 437.884 C 246.616 437.743 244.855 436.134 244.51 434.075 L 244.51 434.045 C 223.859 430.104 208.457 412.516 208.412 391.399 L 208.412 371.522 C 191.251 378.755 170.938 378.897 155.214 384.956 C 129.621 394.78 129.035 409.903 128.253 412.184 C 126.297 417.793 122.53 426.016 121.68 462.498 C 121.53 467.296 121.68 474.649 136.421 481.077 C 168.509 493.433 209.85 497.27 250.609 500.031 L 254.518 500.031 C 295.362 497.292 336.641 493.47 368.708 481.077 C 383.387 474.684 383.523 467.371 383.387 462.522 Z M 203.975 447.649 L 188.746 447.649 L 188.746 462.653 L 177.872 462.653 L 177.872 447.7 L 162.644 447.7 L 162.644 437.02 L 177.872 437.02 L 177.872 422.081 L 188.746 422.081 L 188.746 437.02 L 203.975 437.02 L 203.975 447.649 Z" style="stroke-width: 1; fill: rgb(0, 128, 128);" id="object-2"/><path d="M 319.946 427.58 C 319.946 423.122 316.269 419.498 311.72 419.498 C 307.177 419.498 303.492 423.108 303.492 427.572 C 303.492 432.031 307.177 435.64 311.72 435.64 C 316.254 435.64 319.931 432.031 319.946 427.58 Z" fill="black" style="stroke-width: 1;" id="object-3"/></svg>