<?xml version="1.0" encoding="utf-8"?>
<svg id="svg2" viewBox="0 0 500 670" xmlns="http://www.w3.org/2000/svg" xmlns:bx="https://boxy-svg.com" width="500px" height="670px"><desc>Source: openclipart.org/detail/209545</desc><defs><bx:export><bx:file format="svg"/><bx:file format="svg" href="#object-0" path="Untitled 2.svg"/></bx:export></defs><rect width="496.341" height="492.942" rx="10" fill="#F6F8FF" x="2.282" y="104.585" style="stroke-width: 1;" id="object-0"/><path d="M 314.85 285.873 C 330.371 282.401 350.593 266.861 353.67 259.209 C 355.474 254.735 346.472 247.735 344.066 244.914 C 338.561 238.475 340.786 235.297 342.916 227.623 C 345.343 218.902 339.584 209.271 331.416 205.487 C 323.249 201.71 313.487 202.9 305.275 206.586 C 297.063 210.271 290.055 216.195 283.181 222.026 C 278.165 218.833 270.156 204.72 257.206 213.889 C 248.249 220.206 247.444 233.97 248.603 244.959 C 251.303 270.32 257.507 283.469 269.185 287.018 C 283.948 291.501 300.275 289.142 314.85 285.873 Z" style="stroke-width: 1; fill: rgb(0, 128, 128);"/><path d="M 340.072 212.933 C 338.109 247.106 305.05 269.781 289.37 279.769 L 299.545 288.589 C 299.545 288.589 305.997 288.725 314.834 285.882 C 329.988 281.028 352.127 267.308 353.653 259.217 C 355.895 247.439 343.915 250.003 341.207 240.698 C 339.794 235.768 348.074 226.463 340.072 212.933 Z M 283.212 222.056 C 283.212 222.056 277.315 215.967 272.946 213.192 C 270.765 217.317 269.216 221.799 268.456 226.417 C 267.087 234.532 268.456 246.059 271.667 254.644 C 272.179 255.972 274.074 255.767 274.284 254.363 C 277.059 235.912 283.212 222.056 283.212 222.056 Z" style="stroke-width: 1; fill: rgb(0, 128, 128);"/><path d="M 241.97 282.87 C 241.97 282.87 169.82 290.734 137.272 353.907 C 104.724 417.08 132.391 455.377 161.675 469.331 C 190.96 483.277 264.756 488.199 312.758 476.725 C 360.76 465.251 372.763 441.454 370.521 418.475 C 367.259 384.932 336.349 364.311 336.349 364.311 C 336.349 364.311 337.575 322.882 305.704 295.982 C 277.413 272.094 241.97 282.87 241.97 282.87 Z" style="stroke-width: 1; fill: rgb(0, 128, 128);"/><path d="M 271.569 389.171 C 256.093 369.484 237.818 366.845 231.967 359.777 C 228.771 355.924 226.899 352.034 227.614 347.203 C 228.38 342.069 234.277 338.527 238.856 337.662 C 244.203 336.639 256.95 337.169 267.659 347.461 C 270.201 349.887 269.276 353.664 269.209 357.047 C 269.028 364.304 279.316 371.349 287.648 365.283 C 295.995 359.193 289.589 345.641 284.196 339.058 C 280.128 334.091 265.373 323.155 247.023 321.426 C 241.864 320.933 221.115 317.832 209.135 340.809 C 205.684 347.415 204.413 363.372 222.462 376.855 C 226.229 379.677 245.797 389.702 251.235 396.217 C 260.65 407.479 254.198 417.398 246.843 418.702 C 226.786 422.252 215.423 411.308 213.318 405.31 C 211.821 401.04 213.392 396.422 211.445 392.41 C 209.459 388.284 205.383 386.654 201.082 388.026 C 186.974 392.554 191.464 408.107 197.705 416.67 C 204.39 425.838 212.603 431.367 221.83 434.401 C 256.281 445.715 272.841 427.849 275.736 414.759 C 277.864 405.173 277.631 396.869 271.569 389.171 Z" fill="white" style="stroke-width: 1;"/><path d="M 263.237 308.131 C 233.931 371.259 228.885 450.963 228.885 450.963" stroke="white" stroke-width="2.25" stroke-miterlimit="10" style="stroke-width: 2.25;"/><path d="M 287.573 268.4 C 307.096 274.817 311.419 292.615 310.014 297.469 C 308.322 303.157 286.694 280.997 254.536 282.325 C 243.301 282.794 246.557 275.841 251.761 271.828 C 258.635 266.535 270.178 262.705 287.573 268.4 Z" fill="#6D4C41" style="stroke-width: 1;"/><path d="M 287.573 268.4 C 307.096 274.817 311.419 292.615 310.014 297.469 C 308.322 303.157 286.694 280.997 254.536 282.325 C 243.301 282.794 246.557 275.841 251.761 271.828 C 258.635 266.535 270.178 262.705 287.573 268.4 Z" fill="#F7DECE" style="stroke-width: 1;"/><path d="M 321.865 331.156 C 324.317 329.457 332.553 332.392 334.861 348.651 C 335.996 356.607 336.342 364.304 336.342 364.304 C 336.342 364.304 326.625 355.515 323.414 349.334 C 319.361 341.515 317.789 333.954 321.865 331.156 Z" fill="#1064E2" style="stroke-width: 1;"/></svg>