<?xml version="1.0" encoding="utf-8"?>
<svg id="svg2" viewBox="0 0 500 670" xmlns="http://www.w3.org/2000/svg" xmlns:bx="https://boxy-svg.com" width="500px" height="670px"><desc>Source: openclipart.org/detail/209545</desc><defs><bx:export><bx:file format="svg"/><bx:file format="svg" href="#object-0" path="Untitled 2.svg"/><bx:file format="svg" href="#object-1" path="Untitled 3.svg"/><bx:file format="svg" href="#object-2" path="Untitled 4.svg"/><bx:file format="svg" href="#object-3" path="Untitled 5.svg"/><bx:file format="svg" href="#object-4" path="Untitled 6.svg"/><bx:file format="svg" href="#object-5" path="Untitled 7.svg"/><bx:file format="svg" href="#object-6" path="Untitled 8.svg"/><bx:file format="svg" href="#object-7" path="Untitled 9.svg"/><bx:file format="svg" href="#object-8" path="Untitled 10.svg"/><bx:file format="svg" href="#object-9" path="Untitled 11.svg"/><bx:file format="svg" href="#object-10" path="Untitled 12.svg"/><bx:file format="svg" href="#object-11" path="Untitled 13.svg"/></bx:export></defs><rect width="497.263" height="486.068" rx="10" fill="#F6F8FF" x="0.433" y="105.913" style="stroke-width: 1;" id="object-0"/><path d="M 301.05 413.845 L 301.05 373.847 L 192.941 373.847 L 192.941 413.845 L 247 459.55 L 301.05 413.845 Z" fill="#E6AF78" fill-opacity="0.56" style="stroke-width: 1;" id="object-1"/><path d="M 384.644 432.55 L 310.318 415.913 C 309.195 415.663 308.163 415.236 307.199 414.713 L 247.007 448.119 L 189.159 413.1 C 187.66 414.44 185.799 415.443 183.69 415.913 L 109.371 432.55 C 98.514 434.981 90.845 444.187 90.845 454.799 L 90.845 499.547 C 90.845 505.858 96.224 510.976 102.861 510.976 L 391.145 510.976 C 397.783 510.976 403.163 505.858 403.163 499.547 L 403.163 454.799 C 403.163 444.187 395.493 434.974 384.644 432.55 Z" style="stroke-width: 1; fill: rgb(0, 128, 128);" id="object-2"/><path d="M 192.941 373.847 L 192.941 416.046 C 261.036 439.385 301.05 380.976 301.05 380.976 L 301.05 373.847 L 192.941 373.847 Z" fill="#D29B6E" fill-opacity="0.34" style="stroke-width: 1;" id="object-3"/><path d="M 168.929 242.432 L 174.158 351.974 C 174.648 362.21 179.922 371.696 188.541 377.846 L 213.374 395.565 C 219.612 400.013 227.2 402.421 234.99 402.421 L 259.017 402.421 C 266.815 402.421 274.402 400.013 280.641 395.565 L 305.473 377.846 C 314.085 371.696 319.359 362.21 319.849 351.974 L 325.085 242.432 L 168.929 242.432 Z" fill="#F7DECE" style="stroke-width: 1;" id="object-4"/><path d="M 228.986 265.291 C 253.013 265.291 289.049 259.577 297.593 242.432 L 168.929 242.432 L 174.158 351.974 C 174.648 362.21 179.922 371.696 188.541 377.846 L 213.374 395.565 C 219.612 400.013 227.2 402.421 234.997 402.421 L 247.007 402.421 C 234.997 402.421 210.97 379.562 210.97 350.995 C 210.97 337.023 210.97 299.574 210.97 282.43 C 210.97 276.714 216.976 265.291 228.986 265.291 Z" fill="#F2D4B7" style="stroke-width: 1;" id="object-5"/><path d="M 134.965 473.873 L 96.051 440.615 C 92.788 444.548 90.874 449.49 90.874 454.784 L 90.874 499.532 C 90.874 505.843 96.254 510.962 102.892 510.962 L 144.933 510.962 L 144.933 495.128 C 144.933 487.02 141.309 479.294 134.965 473.873 Z" style="stroke-width: 1; fill: rgb(209, 240, 240);" id="object-6"/><path d="M 359.094 473.873 L 398.016 440.615 C 401.271 444.548 403.186 449.49 403.186 454.784 L 403.186 499.532 C 403.186 505.843 397.806 510.962 391.175 510.962 L 349.134 510.962 L 349.134 495.128 C 349.134 487.02 352.751 479.294 359.094 473.873 Z" style="stroke-width: 1; fill: rgb(209, 240, 240);" id="object-7"/><path d="M 192.105 401.133 L 247 448.134 C 247 448.134 231.63 455.521 212.658 470.405 C 208.741 473.469 202.826 472.231 200.724 467.835 L 174.934 413.851 L 183.094 402.216 C 185.121 399.314 189.386 398.806 192.105 401.133 Z" style="stroke-width: 1; fill: rgb(209, 240, 240);" id="object-8"/><path d="M 301.902 401.133 L 247.007 448.134 C 247.007 448.134 262.385 455.521 281.356 470.405 C 285.266 473.469 291.188 472.231 293.291 467.835 L 319.081 413.851 L 310.921 402.216 C 308.887 399.314 304.629 398.806 301.902 401.133 Z" style="stroke-width: 1; fill: rgb(209, 240, 240);" id="object-9"/><path d="M 283.412 204.584 L 289.041 242.439 C 314.748 247.329 318.447 285.706 318.983 296.665 C 319.081 298.654 319.751 300.576 320.881 302.248 L 330.69 316.719 C 330.69 316.719 327.33 292.791 342.7 276.721 C 342.7 276.721 347.982 181.732 283.412 204.584 Z" fill="#404040" style="stroke-width: 1;" id="object-10"/><path d="M 174.685 194.34 L 183.569 200.114 C 143.404 228.321 150.915 276.714 150.915 276.714 C 162.924 288.137 162.924 316.712 162.924 316.712 L 174.934 305.282 C 174.934 305.282 170.301 272.273 192.956 259.569 C 213.977 247.786 232.368 253.854 251.136 253.854 C 301.435 253.854 315.517 235.825 313.075 213.864 C 311.81 202.5 293.546 178.823 247.007 179.582 C 228.224 179.884 192.956 185.289 174.685 194.34 Z" fill="#242424" style="stroke-width: 1;" id="object-11"/></svg>