<?xml version="1.0" encoding="utf-8"?>
<svg width="126" height="126" viewBox="0 0 126 126" fill="none" xmlns="http://www.w3.org/2000/svg" xmlns:bx="https://boxy-svg.com"><defs><bx:export><bx:file format="svg"/><bx:file format="svg" href="#object-0" path="Untitled 2.svg"/></bx:export><bx:export><bx:file format="svg" excluded="true"/></bx:export><linearGradient gradientUnits="userSpaceOnUse" x1="62.977" y1="-0.118" x2="62.977" y2="125.548" id="gradient-0"><stop offset="0" style="stop-color: rgb(209, 240, 240)"/><stop offset="1" style="stop-color: rgb(43.181% 54.374% 54.424%)"/></linearGradient></defs><circle cx="62.977" cy="62.715" r="62.833" style="stroke-width: 1; transform-box: fill-box; transform-origin: 50% 50%; fill: url(&quot;#gradient-0&quot;);" transform="matrix(-0.999978, -0.006547, 0.006548, -0.999978, 0.000003, -0.000001)" id="object-0"/><path d="M 78.137 46.209 C 66.825 46.209 42.358 43.268 42.358 43.268 C 42.358 43.268 37.465 48.649 34.637 51.477 C 29.369 56.746 29.827 63.414 29.129 71.731 C 29.997 94.847 44.795 113.265 62.982 113.265 C 81.064 113.265 95.803 95.053 96.818 72.115 C 95.823 61.85 88.911 46.209 78.137 46.209 Z" fill="#F7DECE" style="stroke-width: 1;"/><path d="M 62.983 101.952 C 56.346 101.952 52.873 98.671 52.5 98.295 C 51.966 97.769 51.663 97.052 51.658 96.302 C 51.653 95.552 51.945 94.831 52.472 94.297 C 52.998 93.763 53.715 93.46 54.465 93.454 C 55.215 93.449 55.937 93.742 56.471 94.268 C 56.615 94.401 58.75 96.296 62.983 96.296 C 67.279 96.296 69.411 94.345 69.502 94.263 C 70.045 93.754 70.765 93.478 71.509 93.493 C 72.253 93.508 72.962 93.814 73.484 94.345 C 74.001 94.873 74.289 95.584 74.286 96.323 C 74.283 97.063 73.989 97.771 73.467 98.295 C 73.093 98.671 69.621 101.952 62.983 101.952 Z M 65.811 87.812 L 60.155 87.812 C 59.405 87.812 58.686 87.514 58.156 86.984 C 57.625 86.453 57.327 85.734 57.327 84.984 C 57.327 84.234 57.625 83.515 58.156 82.984 C 58.686 82.454 59.405 82.156 60.155 82.156 L 65.811 82.156 C 66.561 82.156 67.281 82.454 67.811 82.984 C 68.341 83.515 68.639 84.234 68.639 84.984 C 68.639 85.734 68.341 86.453 67.811 86.984 C 67.281 87.514 66.561 87.812 65.811 87.812 Z" fill="#C1694F" style="stroke-width: 1;"/><path d="M 48.843 76.499 C 48.093 76.499 47.374 76.201 46.844 75.671 C 46.313 75.141 46.015 74.421 46.015 73.671 L 46.015 68.015 C 46.015 67.265 46.313 66.546 46.844 66.016 C 47.374 65.485 48.093 65.187 48.843 65.187 C 49.593 65.187 50.312 65.485 50.843 66.016 C 51.373 66.546 51.671 67.265 51.671 68.015 L 51.671 73.671 C 51.671 74.421 51.373 75.141 50.843 75.671 C 50.312 76.201 49.593 76.499 48.843 76.499 Z M 77.123 76.499 C 76.373 76.499 75.653 76.201 75.123 75.671 C 74.593 75.141 74.295 74.421 74.295 73.671 L 74.295 68.015 C 74.295 67.265 74.593 66.546 75.123 66.016 C 75.653 65.485 76.373 65.187 77.123 65.187 C 77.873 65.187 78.592 65.485 79.122 66.016 C 79.653 66.546 79.951 67.265 79.951 68.015 L 79.951 73.671 C 79.951 74.421 79.653 75.141 79.122 75.671 C 78.592 76.201 77.873 76.499 77.123 76.499 Z" fill="#662113" style="stroke-width: 1;"/><path d="M 62.976 23.004 C 86.18 23.004 100.676 40.124 100.676 54.391 C 100.676 68.656 97.774 74.368 94.876 68.656 C 91.974 62.952 89.076 54.417 89.076 54.417 C 89.076 54.417 79.24 60.788 71.534 51.535 C 71.534 51.535 74.58 68.656 57.176 51.535 C 57.176 51.535 60.078 62.952 42.677 48.685 C 42.677 48.685 33.976 54.391 31.077 68.656 C 30.274 72.617 25.277 68.656 25.277 54.391 C 25.274 40.124 36.874 23.004 62.976 23.004 Z" style="stroke-width: 1; fill: rgb(0, 128, 128);"/><circle cx="79.133" cy="87.63" r="1.077" fill="#FF9494" style="stroke-width: 1;"/><circle cx="80.749" cy="90.324" r="0.539" fill="#FF9494" style="stroke-width: 1;"/><circle cx="78.594" cy="93.555" r="1.616" fill="#FF9494" style="stroke-width: 1;"/><circle cx="83.442" cy="94.093" r="1.077" fill="#FF9494" style="stroke-width: 1;"/><circle cx="86.133" cy="90.323" r="1.616" fill="#FF9494" style="stroke-width: 1;"/></svg>