<?xml version="1.0" encoding="utf-8"?>
<svg width="126" height="126" viewBox="0 0 126 126" fill="none" xmlns="http://www.w3.org/2000/svg" xmlns:bx="https://boxy-svg.com"><defs><bx:export><bx:file format="svg"/><bx:file format="svg" href="#object-0" path="Untitled 2.svg"/></bx:export><bx:export><bx:file format="svg" excluded="true"/></bx:export><linearGradient gradientUnits="userSpaceOnUse" x1="63.85" y1="-0.018" x2="63.85" y2="125.648" id="gradient-0"><stop offset="0" style="stop-color: rgb(209, 240, 240)"/><stop offset="1" style="stop-color: rgb(43.181% 54.374% 54.424%)"/></linearGradient></defs><circle cx="63.85" cy="62.815" r="62.833" style="stroke-width: 1; transform-box: fill-box; transform-origin: 50% 50%; fill: url(&quot;#gradient-0&quot;);" transform="matrix(-0.999999, 0.001159, -0.001159, -0.999999, -0.999957, 0.000026)" id="object-0"/><path d="M 48.265 48.215 L 48.804 48.169 C 49.008 48.145 49.192 48.072 49.346 47.965 L 49.342 47.968 C 49.858 49.747 50.489 51.617 51.278 53.576 C 52.291 56.14 53.288 58.245 54.404 60.277 L 54.25 59.969 C 54.157 61.37 54.046 62.81 53.9 64.203 C 53.83 65.061 53.661 65.862 53.403 66.616 L 53.422 66.547 C 53.376 66.566 53.311 74.552 53.311 74.552 C 53.314 79.76 56.921 84.121 61.77 85.279 L 61.847 85.294 C 62.067 84.736 62.598 84.348 63.221 84.348 L 65.431 84.348 C 66.05 84.355 66.581 84.74 66.801 85.283 L 66.805 85.294 C 71.743 84.132 75.364 79.771 75.384 74.56 C 75.384 74.56 75.249 66.605 75.18 66.551 C 74.968 65.877 74.799 65.084 74.71 64.268 L 74.706 64.211 C 74.572 62.81 74.483 61.405 74.356 59.977 C 75.307 58.26 76.304 56.159 77.181 53.992 L 77.327 53.584 C 78.116 51.625 78.728 49.758 79.263 47.976 C 79.413 48.084 79.598 48.157 79.798 48.18 L 79.802 48.18 L 80.345 48.226 C 80.999 48.296 81.577 47.757 81.63 46.922 L 82.215 39.489 C 82.215 39.486 82.215 39.482 82.215 39.482 C 82.215 38.854 81.746 38.339 81.142 38.262 L 81.134 38.262 L 81.068 38.262 C 81.219 37.18 81.303 35.933 81.303 34.667 C 81.303 31.903 80.895 29.232 80.137 26.719 L 80.187 26.915 C 77.966 22.043 73.563 18.506 68.26 17.516 L 68.159 17.501 C 67.02 17.266 65.692 17.108 64.338 17.07 L 64.303 17.07 L 64.257 17.07 C 62.875 17.097 61.547 17.251 60.262 17.524 L 60.4 17.501 C 55.004 18.517 50.609 22.054 48.415 26.811 L 48.373 26.915 C 47.657 29.225 47.245 31.88 47.245 34.628 C 47.245 35.91 47.333 37.172 47.507 38.404 L 47.491 38.262 C 46.879 38.331 46.406 38.843 46.406 39.466 L 46.406 39.493 L 46.991 46.925 C 47.045 47.78 47.63 48.296 48.261 48.226 L 48.265 48.215 Z" fill="#F7DECE" style="stroke-width: 1;"/><path d="M 105.564 97.404 C 105.295 85.703 104.125 83.055 103.493 81.262 C 103.243 80.542 103.039 75.677 95.003 72.521 C 90.077 70.581 83.718 70.543 78.338 68.268 L 78.338 74.596 C 78.326 81.4 73.453 87.062 67.007 88.298 L 66.918 88.313 C 66.799 89.013 66.198 89.537 65.479 89.545 L 65.409 89.545 L 65.409 94.317 C 65.409 98.982 69.189 102.761 73.854 102.761 C 78.518 102.761 82.298 98.982 82.298 94.317 L 82.298 90.984 C 79.958 90.634 78.184 88.64 78.184 86.231 C 78.184 83.579 80.335 81.427 82.987 81.427 C 85.639 81.427 87.79 83.579 87.79 86.231 C 87.79 88.332 86.439 90.118 84.561 90.772 L 84.527 90.784 L 84.527 94.317 L 84.527 94.498 C 84.527 100.394 79.746 105.175 73.85 105.175 C 67.953 105.175 63.173 100.394 63.173 94.498 C 63.173 94.433 63.173 94.371 63.173 94.306 L 63.173 94.313 L 63.173 89.498 C 62.488 89.452 61.934 88.936 61.826 88.274 L 61.826 88.267 C 55.322 87 50.472 81.358 50.457 74.58 L 50.457 68.203 C 45.053 70.524 38.656 70.57 33.703 72.513 C 25.643 75.666 25.458 80.519 25.212 81.25 C 24.596 83.052 23.411 85.688 23.141 97.396 C 23.095 98.936 23.141 101.295 27.783 103.358 C 37.89 107.322 50.911 108.554 63.747 109.439 L 64.978 109.439 C 77.841 108.562 90.842 107.334 100.942 103.358 C 105.564 101.307 105.606 98.959 105.564 97.404 Z M 49.059 92.631 L 44.264 92.631 L 44.264 97.446 L 40.838 97.446 L 40.838 92.647 L 36.043 92.647 L 36.043 89.221 L 40.838 89.221 L 40.838 84.426 L 44.264 84.426 L 44.264 89.221 L 49.059 89.221 L 49.059 92.631 Z" style="stroke-width: 1; fill: rgb(0, 80, 80);"/><path d="M 85.584 86.189 C 85.584 84.758 84.426 83.595 82.994 83.595 C 81.562 83.595 80.404 84.754 80.404 86.186 C 80.404 87.617 81.562 88.776 82.994 88.776 C 84.422 88.776 85.581 87.617 85.584 86.189 Z" fill="black" style="stroke-width: 1;"/></svg>