<?xml version="1.0" standalone="no"?>
<!DOCTYPE svg PUBLIC "-//W3C//DTD SVG 20010904//EN"
 "http://www.w3.org/TR/2001/REC-SVG-20010904/DTD/svg10.dtd">
<svg version="1.0" xmlns="http://www.w3.org/2000/svg"
 width="2190.000000pt" height="464.000000pt" viewBox="0 0 2190.000000 464.000000"
 preserveAspectRatio="xMidYMid meet">
<metadata>
Created by potrace 1.16, written by Peter Selinger 2001-2019
</metadata>
<g transform="translate(0.000000,464.000000) scale(0.100000,-0.100000)"
fill="#000000" stroke="none">
<path d="M7348 4057 c-143 -41 -213 -157 -188 -315 6 -36 23 -90 37 -120 31
-66 145 -188 249 -268 l74 -57 0 -372 0 -373 83 -38 c203 -94 520 -258 607
-315 130 -85 227 -185 275 -282 l38 -77 259 0 258 0 0 305 0 305 -355 0 c-230
0 -355 4 -355 10 0 6 4 10 8 10 5 0 42 29 83 63 98 84 140 159 147 263 6 97
-17 170 -74 233 -76 85 -214 124 -343 97 -82 -17 -119 -35 -172 -83 -42 -38
-69 -80 -69 -108 0 -9 16 -23 35 -31 53 -22 141 -18 225 11 89 30 114 31 140
5 24 -24 27 -88 6 -128 -36 -68 -195 -181 -398 -283 l-98 -49 0 307 c0 170 -3
358 -6 418 l-6 110 108 90 c178 147 254 271 254 412 0 78 -17 127 -62 178 -56
63 -116 89 -208 90 -89 0 -154 -26 -205 -80 l-33 -34 -37 35 c-76 71 -180 98
-277 71z m386 -219 c3 -13 6 -49 6 -80 l0 -57 78 -3 77 -3 3 -40 c2 -21 1 -54
-3 -72 l-6 -33 -79 0 -80 0 0 -75 0 -75 -70 0 -70 0 0 75 0 75 -80 0 -81 0 3
73 3 72 73 3 72 3 0 73 c0 40 3 76 7 79 3 4 37 7 74 7 61 0 67 -2 73 -22z"/>
<path d="M7015 3713 c-11 -3 -64 -23 -118 -44 -246 -98 -392 -193 -573 -373
-192 -191 -302 -366 -379 -600 -62 -191 -65 -227 -65 -866 0 -369 4 -597 11
-635 30 -165 142 -296 307 -358 54 -20 76 -21 460 -25 l402 -3 0 58 c0 55 7
98 24 151 l7 22 -379 0 c-411 0 -438 3 -506 55 -19 15 -47 50 -60 78 l-25 52
-3 570 c-3 628 -3 637 58 824 65 198 169 366 324 521 149 149 328 265 515 333
39 14 82 30 96 35 l26 11 -33 66 c-18 36 -36 82 -40 100 -6 35 -11 37 -49 28z"/>
<path d="M8247 3657 c-11 -36 -29 -82 -42 -103 l-23 -38 127 -51 c466 -185
751 -496 889 -970 l26 -90 4 -585 c2 -386 0 -597 -7 -620 -14 -48 -64 -106
-114 -133 -41 -21 -51 -22 -425 -25 l-383 -3 7 -22 c21 -67 34 -127 34 -164
l0 -43 358 1 c304 0 367 3 423 17 132 35 249 132 311 260 l33 67 3 604 c3 665
1 689 -59 886 -142 461 -518 848 -999 1028 -153 57 -142 58 -163 -16z"/>
<path d="M7001 3124 c-113 -24 -205 -106 -232 -208 -18 -66 -6 -183 24 -242
59 -117 226 -233 620 -430 l107 -54 0 -396 0 -395 58 -26 c31 -14 100 -41 152
-60 52 -19 152 -64 222 -100 l127 -65 58 33 c210 118 293 220 323 398 31 185
-33 346 -190 478 -107 90 -241 166 -598 339 -490 237 -598 301 -651 388 -42
67 -18 156 42 156 13 0 61 -11 107 -25 95 -28 165 -32 215 -11 50 21 47 54
-10 115 -52 56 -126 95 -209 110 -73 13 -84 13 -165 -5z m902 -1130 c215 -125
286 -211 287 -345 0 -119 -66 -208 -221 -296 -41 -24 -89 -45 -107 -49 l-32
-6 0 366 c0 201 3 366 6 366 3 0 33 -16 67 -36z"/>
<path d="M9850 2060 l0 -930 170 0 170 0 0 355 0 355 286 0 287 0 30 -32 c16
-18 102 -170 191 -338 89 -168 166 -313 172 -323 9 -16 28 -17 206 -15 l196 3
-72 130 c-40 72 -112 204 -161 295 -48 91 -112 205 -140 255 l-53 90 61 33
c119 63 215 187 252 328 25 92 22 271 -5 359 -30 96 -60 144 -135 213 -49 47
-82 67 -144 91 -145 56 -209 61 -788 61 l-523 0 0 -930z m1118 616 c98 -55
142 -134 142 -257 0 -119 -60 -212 -169 -263 -42 -19 -68 -21 -316 -26 -148
-3 -307 -4 -352 -2 l-83 3 0 290 0 290 363 -3 362 -3 53 -29z"/>
<path d="M15980 2700 l0 -190 -115 0 -115 0 0 -135 0 -135 115 0 115 0 0 -425
c0 -435 4 -494 41 -566 26 -52 88 -104 150 -125 93 -33 391 -21 414 16 3 4 -2
54 -10 111 -24 162 -13 147 -99 141 -96 -6 -122 1 -146 41 -19 30 -20 52 -20
420 l0 387 140 0 140 0 0 135 0 135 -140 0 -140 0 0 190 0 190 -165 0 -165 0
0 -190z"/>
<path d="M12110 2525 c-187 -38 -309 -120 -411 -278 -58 -89 -109 -266 -109
-379 l0 -38 -125 0 -125 0 0 -50 0 -50 125 0 c121 0 125 -1 129 -22 41 -235
81 -325 188 -432 120 -119 251 -171 463 -182 176 -9 325 26 436 104 93 65 173
190 194 304 l7 36 -54 6 c-29 3 -99 7 -156 10 l-102 5 -24 -48 c-54 -106 -155
-158 -290 -149 -154 10 -264 101 -310 257 -9 30 -16 67 -16 83 0 26 3 28 39
28 46 0 62 17 87 94 11 33 19 44 24 35 5 -8 33 -101 63 -208 31 -107 61 -198
69 -202 19 -13 45 -11 60 4 7 8 36 95 63 195 28 100 53 182 56 182 4 0 9 -11
13 -23 3 -13 15 -36 27 -50 l20 -27 308 0 308 0 7 -57 c28 -240 147 -421 336
-511 119 -56 173 -67 330 -66 209 1 325 39 434 144 73 70 107 127 134 226 l20
72 -56 6 c-32 3 -102 8 -157 12 l-100 7 -25 -53 c-48 -103 -150 -157 -279
-148 -125 9 -209 69 -263 186 -15 34 -32 89 -37 122 l-8 60 31 1 c76 2 78 5
122 128 2 8 6 12 8 10 2 -2 29 -96 60 -209 31 -112 62 -208 69 -212 16 -10 55
-10 61 1 3 4 28 84 56 177 28 93 53 178 57 188 4 15 10 9 32 -30 l26 -49 258
-3 257 -2 0 -43 c0 -68 38 -204 76 -278 72 -137 190 -234 349 -286 71 -23 96
-26 220 -26 164 -1 243 15 347 70 118 62 199 171 232 311 l14 60 -37 6 c-20 3
-89 6 -153 6 l-118 0 -21 -45 c-56 -119 -207 -174 -356 -130 -119 35 -222 186
-223 323 l0 32 460 0 460 0 0 104 c0 246 -63 438 -179 549 -108 103 -211 144
-391 154 -255 14 -460 -87 -581 -286 -46 -76 -86 -199 -94 -287 -3 -38 -8 -84
-11 -102 l-5 -32 -226 2 -226 3 -32 90 c-34 93 -58 122 -94 110 -16 -5 -28
-30 -51 -108 -62 -202 -74 -237 -81 -230 -4 5 -30 93 -57 196 -28 104 -56 195
-63 203 -7 8 -24 14 -38 12 -24 -3 -30 -14 -71 -138 -38 -113 -48 -135 -65
-135 -18 0 -20 6 -18 70 8 219 142 375 322 375 100 0 200 -69 245 -169 l26
-58 151 36 151 36 -5 37 c-9 66 -62 165 -121 224 -100 99 -256 153 -441 153
-349 0 -585 -195 -651 -537 -8 -41 -14 -96 -14 -123 l0 -49 -85 0 c-61 0 -85
4 -85 13 -2 67 -24 226 -40 286 -75 272 -278 412 -595 410 -49 -1 -119 -7
-155 -14z m263 -265 c125 -47 197 -183 197 -372 l0 -59 -37 3 c-37 3 -37 3
-70 92 -18 49 -38 95 -44 102 -14 18 -53 18 -67 1 -6 -7 -32 -84 -58 -172 -26
-88 -49 -162 -50 -164 -8 -10 -16 14 -65 200 -28 107 -56 200 -61 207 -6 6
-23 12 -38 12 -32 0 -35 -6 -90 -183 -25 -78 -35 -97 -48 -95 -14 3 -17 14
-14 68 7 176 99 327 221 364 68 21 161 20 224 -4z m2839 -13 c57 -33 113 -114
133 -192 8 -32 15 -63 15 -67 0 -4 -131 -8 -291 -8 l-291 0 7 38 c10 54 53
137 93 179 20 19 58 46 86 60 71 33 182 29 248 -10z"/>
<path d="M17155 2533 c-62 -9 -150 -35 -199 -60 -103 -52 -194 -165 -221 -274
l-6 -26 133 -27 c73 -14 142 -29 154 -32 16 -4 24 2 38 34 39 86 115 132 218
132 138 -1 211 -73 225 -226 l6 -64 -89 0 c-283 -1 -491 -61 -602 -173 -63
-64 -97 -131 -113 -221 -51 -295 134 -506 442 -506 126 0 237 42 325 123 l52
47 6 -27 c3 -16 8 -45 12 -65 l6 -38 148 0 148 0 -5 493 c-5 619 -10 652 -124
773 -91 96 -239 145 -426 143 -54 -1 -111 -4 -128 -6z m343 -875 c-3 -86 -8
-111 -30 -153 -51 -98 -132 -148 -243 -149 -125 -2 -186 48 -193 157 -11 165
113 240 407 246 l63 1 -4 -102z"/>
<path d="M6330 2145 l0 -305 285 0 285 0 28 63 c16 34 50 89 75 123 43 56 160
168 215 206 23 15 21 17 -85 73 -59 32 -136 77 -171 101 l-63 44 -284 0 -285
0 0 -305z"/>
<path d="M7235 2142 c-101 -86 -157 -150 -202 -229 -47 -86 -64 -151 -64 -260
-1 -225 91 -351 359 -493 34 -18 62 -36 62 -40 0 -4 -21 -24 -46 -43 -230
-179 -155 -483 136 -558 l50 -13 0 -78 c0 -101 16 -138 92 -215 l61 -62 38 31
c21 17 55 55 76 85 33 49 37 60 42 144 l6 92 52 13 c118 30 214 100 257 187
21 40 26 66 26 121 -1 92 -23 142 -98 215 -70 68 -164 119 -372 201 -197 78
-297 131 -371 199 -84 75 -103 116 -104 216 0 105 24 154 128 258 l77 78 0 78
0 77 -61 32 c-33 18 -61 32 -62 32 -1 0 -38 -31 -82 -68z m291 -1570 c-7 -6
-53 23 -89 57 -43 39 -67 93 -67 149 0 61 38 119 108 163 l47 30 3 -197 c1
-108 0 -199 -2 -202z m364 371 c41 -27 91 -76 106 -105 20 -38 17 -112 -5
-156 -23 -45 -53 -73 -108 -101 l-42 -21 -3 200 c-3 218 -3 220 52 183z"/>
</g>
</svg>
