<?xml version="1.0" encoding="utf-8"?>
<svg width="126" height="126" viewBox="0 0 126 126" fill="none" xmlns="http://www.w3.org/2000/svg" xmlns:bx="https://boxy-svg.com"><defs><bx:export><bx:file format="svg"/></bx:export><bx:export><bx:file format="svg" excluded="true"/></bx:export><linearGradient gradientUnits="userSpaceOnUse" x1="62.495" y1="0.59" x2="62.495" y2="126.256" id="gradient-0"><stop offset="0" style="stop-color: rgb(209, 240, 240)"/><stop offset="1" style="stop-color: rgb(43.181% 54.374% 54.424%)"/></linearGradient></defs><circle cx="62.495" cy="63.423" r="62.833" style="stroke-width: 1; transform-box: fill-box; transform-origin: 50% 50%; fill: url(&quot;#gradient-0&quot;);" transform="matrix(-0.999973, 0.007365, -0.007365, -0.999973, 0.000001, 0.000008)"/><circle cx="65.513" cy="55.382" r="26.641" style="stroke-width: 1; fill: rgb(0, 128, 128);"/><path d="M 72.074 58.101 C 70.709 58.101 69.622 57.838 68.748 57.433 C 67.44 56.827 66.593 55.894 66.06 54.963 C 65.795 54.499 65.611 54.039 65.495 53.633 C 65.38 53.229 65.334 52.874 65.335 52.661 C 65.335 52.256 65.008 51.929 64.604 51.929 C 64.2 51.929 63.872 52.256 63.872 52.661 C 63.872 52.925 63.904 53.215 63.969 53.534 C 64.081 54.094 64.291 54.738 64.636 55.405 C 65.15 56.4 65.969 57.446 67.193 58.238 C 67.501 58.441 67.829 58.622 68.186 58.783 C 68.243 59.026 68.322 59.451 68.321 59.968 C 68.321 60.343 68.279 60.759 68.166 61.187 C 68.053 61.615 67.87 62.05 67.574 62.476 C 67.347 62.81 67.428 63.264 67.761 63.493 C 68.092 63.723 68.548 63.641 68.777 63.308 C 69.177 62.732 69.431 62.132 69.581 61.562 C 69.73 60.99 69.783 60.445 69.783 59.968 C 69.783 59.731 69.769 59.506 69.75 59.305 C 70.454 59.468 71.224 59.564 72.074 59.564 C 72.478 59.564 72.806 59.237 72.806 58.833 C 72.806 58.429 72.478 58.101 72.074 58.101 Z" fill="#BCCBE1" style="stroke-width: 1;"/><path d="M 75.317 48.689 C 74.965 48.493 74.521 48.613 74.321 48.966 C 74.122 49.317 74.247 49.763 74.599 49.962 C 75.139 50.271 75.466 50.612 75.686 50.965 C 74.784 51.282 73.987 51.414 73.279 51.414 C 72.247 51.412 71.403 51.14 70.689 50.721 C 69.978 50.304 69.405 49.73 68.969 49.138 C 68.251 48.158 67.318 47.287 66.217 46.651 C 65.116 46.017 63.845 45.62 62.479 45.62 C 61.282 45.62 60.022 45.929 58.771 46.615 C 58.261 46.894 57.816 47.221 57.431 47.58 C 55.91 48.165 54.601 48.377 53.491 48.377 C 51.911 48.375 50.733 47.953 49.943 47.537 C 49.55 47.327 49.256 47.121 49.066 46.97 C 48.97 46.894 48.899 46.835 48.856 46.795 L 48.813 46.753 L 48.805 46.745 C 48.524 46.458 48.064 46.45 47.773 46.729 C 47.483 47.009 47.475 47.471 47.754 47.762 C 47.797 47.804 48.298 48.317 49.26 48.828 C 49.681 49.051 50.197 49.27 50.793 49.449 C 50.635 49.671 50.418 49.999 50.182 50.412 C 49.73 51.211 49.21 52.333 48.947 53.653 C 48.865 54.052 49.123 54.436 49.519 54.515 C 49.915 54.595 50.299 54.336 50.378 53.94 C 50.6 52.827 51.056 51.837 51.455 51.135 C 51.655 50.78 51.839 50.502 51.972 50.312 C 52.039 50.219 52.091 50.145 52.127 50.1 C 52.145 50.077 52.158 50.061 52.166 50.05 L 52.177 50.039 L 52.178 50.037 C 52.244 49.955 52.288 49.862 52.314 49.763 C 52.686 49.811 53.076 49.838 53.491 49.838 C 54.259 49.838 55.102 49.747 56.009 49.541 C 55.557 50.509 55.373 51.521 55.372 52.448 C 55.374 53.379 55.552 54.228 55.87 54.902 C 56.043 55.265 56.479 55.423 56.843 55.249 C 57.207 55.076 57.364 54.641 57.191 54.276 C 56.988 53.854 56.832 53.186 56.835 52.447 C 56.834 51.65 57.008 50.775 57.42 49.973 C 57.835 49.173 58.477 48.444 59.474 47.897 C 60.525 47.319 61.532 47.083 62.478 47.08 C 63.559 47.083 64.576 47.394 65.487 47.918 C 66.394 48.44 67.186 49.179 67.79 50.001 C 68.322 50.728 69.033 51.442 69.947 51.982 C 70.86 52.521 71.982 52.877 73.279 52.874 C 74.137 52.874 75.069 52.721 76.073 52.38 L 76.074 52.431 C 76.074 52.79 76.018 53.116 75.963 53.347 C 75.936 53.46 75.908 53.552 75.887 53.61 C 75.878 53.64 75.871 53.661 75.866 53.675 L 75.862 53.685 L 75.862 53.687 C 75.714 54.061 75.894 54.484 76.269 54.634 C 76.645 54.783 77.07 54.601 77.22 54.228 C 77.241 54.175 77.532 53.444 77.536 52.432 C 77.536 51.852 77.435 51.17 77.096 50.497 C 76.76 49.821 76.182 49.176 75.317 48.689 Z" fill="#BCCBE1" style="stroke-width: 1;"/><path d="M 56.548 43.225 C 57.052 42.632 57.767 42.165 58.582 41.852 C 59.397 41.535 60.304 41.378 61.155 41.378 C 61.982 41.378 62.754 41.53 63.318 41.794 C 63.687 41.963 64.121 41.802 64.288 41.437 C 64.458 41.07 64.298 40.634 63.933 40.468 C 63.117 40.089 62.155 39.92 61.155 39.919 C 60.127 39.919 59.056 40.103 58.056 40.487 C 57.06 40.871 56.133 41.457 55.435 42.283 C 55.172 42.59 55.211 43.051 55.519 43.311 C 55.827 43.574 56.29 43.534 56.548 43.225 Z" fill="#BCCBE1" style="stroke-width: 1;"/><path d="M 67.846 23.786 C 49.826 22.677 34.652 34.014 34.995 52.484 L 34.982 54.156 L 27.153 67.981 C 26.731 68.726 26.694 69.629 27.051 70.408 C 27.408 71.187 28.117 71.746 28.957 71.913 L 33.795 73.247 L 35.315 87.906 C 35.355 89.32 35.983 90.651 37.049 91.579 C 38.115 92.508 39.522 92.947 40.926 92.79 L 44.789 93.097 C 45.544 93.014 46.298 93.254 46.863 93.762 C 47.428 94.267 47.752 94.99 47.752 95.749 L 47.752 107.269 L 80.441 107.269 C 80.441 107.269 80.441 101.683 80.441 99.455 C 80.441 97.225 81.211 92.129 82.669 89.796 C 87.969 81.323 96.595 76.815 98.05 59.439 C 99.507 42.06 89.135 25.098 67.846 23.786 Z M 89.594 53.585 C 88.862 54.796 87.676 55.55 86.382 55.773 C 85.985 55.843 85.716 56.219 85.784 56.617 C 85.855 57.015 86.232 57.285 86.629 57.213 C 86.926 57.162 87.219 57.089 87.507 56.996 C 87.819 57.641 87.974 58.335 87.974 59.027 C 87.974 59.765 87.799 60.498 87.462 61.161 C 87.126 61.823 86.629 62.412 85.977 62.871 C 85.157 63.447 84.224 63.721 83.297 63.722 C 83.224 63.722 83.151 63.714 83.079 63.713 C 83.062 63.591 83.048 63.47 83.026 63.351 L 83.026 63.349 C 82.867 62.502 82.535 61.726 82.083 61.052 L 82.027 60.97 L 81.952 60.906 C 81.399 60.431 80.665 59.652 80.098 58.859 C 79.812 58.463 79.57 58.061 79.406 57.704 C 79.241 57.346 79.164 57.034 79.167 56.851 C 79.167 56.769 79.179 56.712 79.195 56.675 C 79.208 56.638 79.222 56.617 79.25 56.587 C 79.535 56.304 79.535 55.84 79.25 55.552 C 78.964 55.269 78.502 55.269 78.218 55.552 C 78.038 55.73 77.904 55.944 77.822 56.171 C 77.737 56.394 77.706 56.626 77.706 56.85 C 77.709 57.356 77.862 57.837 78.077 58.312 C 78.403 59.023 78.889 59.727 79.416 60.372 C 79.912 60.976 80.437 61.519 80.909 61.935 C 81.236 62.434 81.473 62.997 81.59 63.619 C 81.638 63.881 81.664 64.141 81.669 64.389 L 81.669 64.395 C 81.669 64.427 81.67 64.459 81.67 64.494 C 81.67 65.598 81.277 66.643 80.602 67.466 C 79.925 68.288 78.973 68.885 77.844 69.097 C 77.55 69.154 77.258 69.18 76.97 69.18 C 75.42 69.182 73.986 68.402 73.124 67.164 C 73.589 66.693 73.985 66.141 74.286 65.514 L 74.286 65.516 C 74.66 64.741 74.857 63.919 74.892 63.106 C 74.91 62.703 74.598 62.362 74.196 62.345 C 73.79 62.326 73.451 62.64 73.432 63.043 C 73.406 63.663 73.256 64.285 72.97 64.878 L 72.969 64.881 C 72.661 65.516 72.234 66.047 71.724 66.467 L 71.722 66.469 C 70.881 67.155 69.822 67.533 68.739 67.533 C 68.057 67.533 67.364 67.384 66.706 67.066 C 65.489 66.481 64.643 65.438 64.269 64.244 L 64.267 64.244 C 64.125 63.792 64.051 63.315 64.051 62.838 C 64.051 62.154 64.2 61.462 64.518 60.803 C 64.694 60.439 64.54 60.001 64.176 59.828 C 63.814 59.652 63.378 59.804 63.202 60.168 C 62.788 61.027 62.588 61.941 62.588 62.838 C 62.588 63.273 62.639 63.702 62.728 64.122 C 62.157 64.434 61.514 64.634 60.819 64.683 L 60.818 64.683 C 60.704 64.692 60.592 64.697 60.479 64.697 C 59.381 64.697 58.365 64.316 57.56 63.67 C 56.855 63.106 56.315 62.348 56.028 61.464 C 56.541 60.958 56.968 60.364 57.28 59.704 C 57.452 59.339 57.296 58.904 56.931 58.732 C 56.568 58.559 56.129 58.715 55.958 59.081 C 55.669 59.694 55.248 60.237 54.734 60.671 C 54.001 61.29 53.077 61.687 52.049 61.761 L 52.048 61.761 C 51.934 61.769 51.822 61.774 51.711 61.774 C 49.391 61.774 47.41 60.06 47.074 57.767 L 47.073 57.761 L 47.073 57.757 C 47.054 57.647 47.042 57.533 47.034 57.414 C 47.026 57.303 47.022 57.188 47.022 57.075 C 47.022 56.781 47.05 56.49 47.103 56.209 C 47.174 55.811 46.912 55.43 46.515 55.356 C 46.12 55.285 45.738 55.544 45.662 55.942 C 45.596 56.309 45.56 56.688 45.56 57.075 L 45.562 57.119 C 44.904 57.045 44.266 56.834 43.696 56.5 C 42.973 56.079 42.36 55.461 41.936 54.669 C 41.559 53.961 41.38 53.208 41.38 52.462 C 41.38 51.498 41.679 50.552 42.231 49.761 C 42.445 50.062 42.685 50.345 42.955 50.611 C 43.572 51.216 44.286 51.664 45.042 51.957 C 45.419 52.105 45.841 51.917 45.987 51.538 C 46.135 51.162 45.945 50.74 45.571 50.593 C 44.992 50.37 44.45 50.03 43.98 49.568 L 43.98 49.566 C 43.564 49.161 43.242 48.699 43.012 48.204 C 42.717 47.576 42.569 46.892 42.569 46.215 C 42.57 45.025 43.013 43.847 43.907 42.934 C 44.669 42.158 45.627 41.704 46.622 41.566 L 46.623 41.566 L 46.626 41.566 C 46.838 41.539 47.05 41.524 47.262 41.524 C 48.449 41.526 49.629 41.973 50.544 42.865 C 50.833 43.146 51.295 43.143 51.578 42.853 C 51.86 42.566 51.855 42.104 51.567 41.821 C 50.402 40.68 48.893 40.096 47.383 40.069 C 47.553 39.37 47.881 38.719 48.34 38.171 C 48.978 37.411 49.849 36.85 50.891 36.61 C 51.245 36.531 51.594 36.49 51.941 36.49 C 52.554 36.49 53.15 36.614 53.7 36.837 C 53.544 37.382 53.458 37.954 53.458 38.547 C 53.458 38.95 53.785 39.276 54.189 39.276 C 54.593 39.276 54.919 38.95 54.919 38.547 C 54.919 37.908 55.049 37.297 55.277 36.743 C 55.63 35.894 56.228 35.172 56.978 34.662 C 57.731 34.152 58.632 33.855 59.611 33.855 C 61.02 33.855 62.278 34.471 63.14 35.455 C 63.866 36.281 64.302 37.36 64.302 38.547 C 64.302 38.95 64.631 39.276 65.034 39.276 C 65.438 39.276 65.767 38.95 65.767 38.547 C 65.767 37.196 65.329 35.944 64.59 34.931 C 64.968 34.407 65.45 33.961 66.008 33.631 C 66.706 33.22 67.519 32.983 68.39 32.983 C 69.394 32.983 70.316 33.296 71.077 33.83 C 71.841 34.364 72.437 35.121 72.774 36 L 72.773 36 C 72.972 36.523 73.08 37.084 73.08 37.676 C 73.08 38.079 73.409 38.406 73.812 38.406 C 74.215 38.406 74.545 38.079 74.545 37.676 C 74.545 37.072 74.452 36.491 74.29 35.939 C 75.157 35.133 76.305 34.677 77.49 34.677 C 78.109 34.677 78.737 34.799 79.344 35.058 C 80.19 35.425 80.869 36.003 81.354 36.709 C 81.838 37.417 82.123 38.246 82.172 39.105 C 82.178 39.194 82.182 39.281 82.182 39.37 C 82.179 39.99 82.057 40.616 81.797 41.224 C 81.637 41.594 81.809 42.024 82.179 42.182 C 82.551 42.342 82.979 42.171 83.14 41.801 C 83.411 41.17 83.567 40.519 83.62 39.865 C 84.336 39.916 85.034 40.134 85.652 40.499 C 86.357 40.915 86.959 41.524 87.37 42.306 C 87.73 42.989 87.899 43.715 87.901 44.435 C 87.901 44.764 87.86 45.09 87.789 45.409 C 87.352 45.237 86.895 45.122 86.44 45.055 C 86.043 45 85.671 45.279 85.617 45.679 C 85.559 46.079 85.839 46.448 86.236 46.503 C 86.696 46.569 87.149 46.701 87.581 46.905 C 87.656 47.03 87.772 47.133 87.917 47.196 C 88.005 47.235 88.101 47.254 88.193 47.254 C 88.463 47.434 88.709 47.636 88.928 47.858 L 88.929 47.859 C 89.807 48.744 90.278 49.937 90.278 51.157 C 90.278 51.986 90.059 52.824 89.594 53.585 Z" fill="#F7DECE" style="stroke-width: 1;"/><path d="M 82 47.121 C 81.638 46.808 81.249 46.552 80.836 46.372 C 80.423 46.19 79.988 46.081 79.544 46.081 C 79.14 46.081 78.813 46.408 78.813 46.812 C 78.813 47.217 79.14 47.543 79.544 47.543 C 79.812 47.543 80.15 47.636 80.51 47.842 C 81.046 48.15 81.603 48.703 82.006 49.393 C 82.414 50.084 82.674 50.904 82.671 51.754 C 82.669 52.687 82.375 53.662 81.577 54.629 C 81.322 54.939 81.365 55.401 81.677 55.658 C 81.988 55.917 82.45 55.871 82.706 55.562 C 83.709 54.35 84.137 53.008 84.136 51.754 C 84.136 50.991 83.98 50.261 83.725 49.595 C 83.339 48.598 82.724 47.747 82 47.121 Z" fill="#C0CDE2" style="stroke-width: 1;"/><path d="M 76.944 43.809 C 74.935 43.809 73.323 43.068 72.206 42.1 C 71.647 41.617 71.22 41.077 70.94 40.559 C 70.655 40.042 70.526 39.549 70.529 39.18 C 70.529 38.778 70.201 38.45 69.799 38.45 C 69.395 38.45 69.067 38.778 69.067 39.18 C 69.07 39.866 69.285 40.572 69.655 41.257 C 70.046 41.971 70.615 42.665 71.336 43.274 C 71.191 43.476 70.991 43.739 70.733 44.017 C 70.177 44.625 69.375 45.297 68.415 45.64 C 68.037 45.774 67.837 46.191 67.973 46.573 C 68.108 46.954 68.525 47.15 68.907 47.016 C 70.208 46.549 71.18 45.696 71.842 44.97 C 72.136 44.648 72.364 44.351 72.535 44.115 C 73.743 44.811 75.237 45.272 76.944 45.272 C 77.348 45.272 77.674 44.944 77.674 44.542 C 77.675 44.138 77.348 43.809 76.944 43.809 Z" fill="#BCCBE1" style="stroke-width: 1;"/></svg>