<?xml version="1.0" encoding="utf-8"?>
<svg width="126" height="126" viewBox="0 0 126 126" fill="none" xmlns="http://www.w3.org/2000/svg" xmlns:bx="https://boxy-svg.com"><defs><bx:export><bx:file format="svg"/><bx:file format="svg" href="#object-0" path="Untitled 2.svg"/></bx:export><bx:export><bx:file format="svg" excluded="true"/></bx:export><linearGradient gradientUnits="userSpaceOnUse" x1="63.358" y1="0.446" x2="63.358" y2="126.112" id="gradient-0"><stop offset="0" style="stop-color: rgb(209, 240, 240)"/><stop offset="1" style="stop-color: rgb(43.181% 54.374% 54.424%)"/></linearGradient></defs><circle cx="63.358" cy="63.279" r="62.833" style="stroke-width: 1; transform-box: fill-box; transform-origin: 50% 50%; fill: url(&quot;#gradient-0&quot;);" transform="matrix(-1, 0.000677, -0.000677, -1, 0.000014, 0.000002)" id="object-0"/><path d="M 91.57 70.356 L 36.459 70.356 C 30.52 70.356 25.658 75.034 25.658 80.759 C 25.658 86.476 30.52 91.161 36.459 91.161 L 91.57 91.161 C 97.509 91.161 102.371 86.484 102.371 80.759 C 102.378 75.034 97.516 70.356 91.57 70.356 Z" fill="#EDC391" style="stroke-width: 1;"/><path d="M 93.349 43.909 C 86.259 33.123 77.118 29.434 63.839 29.434 C 50.559 29.434 41.418 33.116 34.328 43.909 C 29.134 51.818 27.88 64.249 29.481 77.057 C 31.023 89.37 32.299 96.128 39.943 103.026 C 46.582 109.016 55.598 110.308 63.33 110.308 L 64.348 110.308 C 72.079 110.308 81.102 109.016 87.735 103.026 C 95.378 96.128 96.654 89.37 98.196 77.057 C 99.797 64.249 98.543 51.811 93.349 43.909 Z" fill="#F7DECE" style="stroke-width: 1;"/><path d="M 74.829 45.088 C 74.932 44.977 75.035 44.874 75.139 44.763 C 75.212 44.682 75.286 44.593 75.36 44.512 C 75.53 44.313 75.692 44.114 75.847 43.907 L 75.913 43.819 C 76.061 43.619 76.194 43.413 76.326 43.199 C 76.363 43.14 76.4 43.074 76.437 43.014 C 76.562 42.801 76.688 42.587 76.806 42.358 C 76.828 42.321 76.843 42.291 76.857 42.255 C 77.138 41.701 77.381 41.104 77.58 40.477 L 77.603 40.41 C 78.008 39.104 78.244 37.651 78.244 36.013 C 78.244 32.738 77.064 30.148 75.264 28.193 C 75.242 28.171 75.227 28.156 75.212 28.134 C 75.072 27.986 74.925 27.839 74.777 27.691 L 74.688 27.603 C 74.517 27.439 74.34 27.282 74.157 27.131 C 74.01 27.005 73.862 26.887 73.715 26.769 C 73.678 26.74 73.641 26.717 73.611 26.688 L 73.124 26.334 C 73.095 26.319 73.073 26.297 73.043 26.282 C 72.453 25.884 71.841 25.53 71.206 25.227 C 71.184 25.212 71.155 25.205 71.132 25.19 C 70.948 25.102 70.764 25.021 70.579 24.939 L 70.409 24.866 C 70.247 24.799 70.085 24.733 69.923 24.674 C 69.864 24.652 69.797 24.63 69.738 24.607 C 69.583 24.548 69.428 24.497 69.281 24.445 L 69.081 24.379 C 68.927 24.327 68.779 24.283 68.624 24.239 C 68.558 24.216 68.491 24.202 68.418 24.179 C 68.263 24.135 68.108 24.098 67.953 24.061 L 67.761 24.017 C 67.591 23.98 67.422 23.943 67.259 23.907 C 67.208 23.899 67.156 23.884 67.104 23.877 C 66.669 23.781 66.234 23.715 65.798 23.663 C 65.739 23.656 65.68 23.656 65.621 23.648 C 65.466 23.634 65.319 23.619 65.164 23.611 C 65.075 23.604 64.994 23.604 64.906 23.597 C 64.78 23.589 64.662 23.582 64.544 23.582 C 64.448 23.582 64.352 23.575 64.249 23.575 C 64.183 23.575 64.116 23.567 64.057 23.567 L 63.984 23.567 C 63.666 23.567 63.349 23.582 63.039 23.604 C 62.98 23.611 62.921 23.611 62.862 23.619 C 62.545 23.648 62.235 23.678 61.94 23.729 C 58.318 24.32 55.389 26.223 53.559 28.082 C 52.46 29.196 51.759 30.296 51.545 31.085 L 51.552 31.085 C 53.898 30.487 56.931 29.964 60.31 29.786 C 64.884 29.469 68.705 32.074 68.521 36.072 C 68.499 36.552 68.44 37.002 68.358 37.422 L 68.336 37.548 C 68.299 37.71 68.255 37.872 68.211 38.027 C 68.189 38.101 68.167 38.175 68.152 38.241 C 68.108 38.374 68.063 38.507 68.012 38.64 C 67.982 38.721 67.945 38.802 67.908 38.883 C 67.857 39.001 67.805 39.112 67.754 39.215 C 67.709 39.304 67.665 39.385 67.613 39.466 C 67.562 39.562 67.503 39.658 67.444 39.746 C 67.385 39.835 67.318 39.923 67.259 40.012 C 67.208 40.086 67.156 40.159 67.097 40.233 C 67.001 40.351 66.898 40.462 66.794 40.565 C 66.765 40.595 66.735 40.632 66.706 40.661 C 66.566 40.801 66.418 40.927 66.263 41.052 C 66.234 41.074 66.197 41.096 66.167 41.118 C 66.042 41.216 65.911 41.307 65.776 41.391 C 65.732 41.414 65.695 41.443 65.651 41.465 C 65.518 41.546 65.385 41.62 65.253 41.687 C 65.208 41.709 65.171 41.731 65.127 41.746 C 64.987 41.812 64.839 41.878 64.684 41.937 C 64.655 41.952 64.618 41.967 64.581 41.974 C 64.411 42.041 64.242 42.1 64.065 42.151 C 64.05 42.159 64.035 42.159 64.02 42.166 C 63.224 42.402 62.368 42.505 61.497 42.505 C 58.871 42.505 56.149 41.532 54.585 40.137 C 54.455 40.02 54.287 39.954 54.112 39.953 C 54.075 39.953 54.039 39.968 54.009 39.975 C 53.98 39.982 53.943 39.982 53.913 39.997 C 53.869 40.012 53.825 40.027 53.78 40.049 C 53.707 40.086 53.648 40.13 53.589 40.182 C 53.574 40.196 53.566 40.211 53.552 40.226 C 53.5 40.285 53.456 40.359 53.419 40.432 C 53.411 40.447 53.411 40.454 53.404 40.469 C 53.367 40.565 53.345 40.676 53.36 40.794 C 53.581 43.022 54.983 45.811 58.318 47.906 C 61.49 49.905 68.167 49.927 72.918 46.674 L 73.051 46.585 C 73.191 46.482 73.338 46.379 73.479 46.275 C 73.538 46.231 73.604 46.179 73.663 46.128 C 73.87 45.966 74.069 45.796 74.261 45.619 L 74.548 45.353 C 74.652 45.272 74.74 45.176 74.829 45.088 Z" fill="#312D2D" style="stroke-width: 1;"/><path d="M 74.829 45.088 C 74.932 44.977 75.035 44.874 75.139 44.763 C 75.212 44.682 75.286 44.593 75.36 44.512 C 75.53 44.313 75.692 44.114 75.847 43.907 L 75.913 43.819 C 76.061 43.619 76.194 43.413 76.326 43.199 C 76.363 43.14 76.4 43.074 76.437 43.014 C 76.562 42.801 76.688 42.587 76.806 42.358 C 76.828 42.321 76.843 42.291 76.857 42.255 C 77.138 41.701 77.381 41.104 77.58 40.477 L 77.603 40.41 C 78.008 39.104 78.244 37.651 78.244 36.013 C 78.244 32.738 77.064 30.148 75.264 28.193 C 75.242 28.171 75.227 28.156 75.212 28.134 C 75.072 27.986 74.925 27.839 74.777 27.691 L 74.688 27.603 C 74.517 27.439 74.34 27.282 74.157 27.131 C 74.01 27.005 73.862 26.887 73.715 26.769 C 73.678 26.74 73.641 26.717 73.611 26.688 L 73.124 26.334 C 73.095 26.319 73.073 26.297 73.043 26.282 C 72.453 25.884 71.841 25.53 71.206 25.227 C 71.184 25.212 71.155 25.205 71.132 25.19 C 70.948 25.102 70.764 25.021 70.579 24.939 L 70.409 24.866 C 70.247 24.799 70.085 24.733 69.923 24.674 C 69.864 24.652 69.797 24.63 69.738 24.607 C 69.583 24.548 69.428 24.497 69.281 24.445 L 69.081 24.379 C 68.927 24.327 68.779 24.283 68.624 24.239 C 68.558 24.216 68.491 24.202 68.418 24.179 C 68.263 24.135 68.108 24.098 67.953 24.061 L 67.761 24.017 C 67.591 23.98 67.422 23.943 67.259 23.907 C 67.208 23.899 67.156 23.884 67.104 23.877 C 66.669 23.781 66.234 23.715 65.798 23.663 C 65.739 23.656 65.68 23.656 65.621 23.648 C 65.466 23.634 65.319 23.619 65.164 23.611 C 65.075 23.604 64.994 23.604 64.906 23.597 C 64.78 23.589 64.662 23.582 64.544 23.582 C 64.448 23.582 64.352 23.575 64.249 23.575 C 64.183 23.575 64.116 23.567 64.057 23.567 L 63.984 23.567 C 63.666 23.567 63.349 23.582 63.039 23.604 C 62.98 23.611 62.921 23.611 62.862 23.619 C 62.545 23.648 62.235 23.678 61.94 23.729 C 58.318 24.32 55.389 26.223 53.559 28.082 C 52.46 29.196 51.759 30.296 51.545 31.085 L 51.552 31.085 C 53.898 30.487 56.931 29.964 60.31 29.786 C 64.884 29.469 68.705 32.074 68.521 36.072 C 68.499 36.552 68.44 37.002 68.358 37.422 L 68.336 37.548 C 68.299 37.71 68.255 37.872 68.211 38.027 C 68.189 38.101 68.167 38.175 68.152 38.241 C 68.108 38.374 68.063 38.507 68.012 38.64 C 67.982 38.721 67.945 38.802 67.908 38.883 C 67.857 39.001 67.805 39.112 67.754 39.215 C 67.709 39.304 67.665 39.385 67.613 39.466 C 67.562 39.562 67.503 39.658 67.444 39.746 C 67.385 39.835 67.318 39.923 67.259 40.012 C 67.208 40.086 67.156 40.159 67.097 40.233 C 67.001 40.351 66.898 40.462 66.794 40.565 C 66.765 40.595 66.735 40.632 66.706 40.661 C 66.566 40.801 66.418 40.927 66.263 41.052 C 66.234 41.074 66.197 41.096 66.167 41.118 C 66.042 41.216 65.911 41.307 65.776 41.391 C 65.732 41.414 65.695 41.443 65.651 41.465 C 65.518 41.546 65.385 41.62 65.253 41.687 C 65.208 41.709 65.171 41.731 65.127 41.746 C 64.987 41.812 64.839 41.878 64.684 41.937 C 64.655 41.952 64.618 41.967 64.581 41.974 C 64.411 42.041 64.242 42.1 64.065 42.151 C 64.05 42.159 64.035 42.159 64.02 42.166 C 63.224 42.402 62.368 42.505 61.497 42.505 C 58.871 42.505 56.149 41.532 54.585 40.137 C 54.455 40.02 54.287 39.954 54.112 39.953 C 54.075 39.953 54.039 39.968 54.009 39.975 C 53.98 39.982 53.943 39.982 53.913 39.997 C 53.869 40.012 53.825 40.027 53.78 40.049 C 53.707 40.086 53.648 40.13 53.589 40.182 C 53.574 40.196 53.566 40.211 53.552 40.226 C 53.5 40.285 53.456 40.359 53.419 40.432 C 53.411 40.447 53.411 40.454 53.404 40.469 C 53.367 40.565 53.345 40.676 53.36 40.794 C 53.581 43.022 54.983 45.811 58.318 47.906 C 61.49 49.905 68.167 49.927 72.918 46.674 L 73.051 46.585 C 73.191 46.482 73.338 46.379 73.479 46.275 C 73.538 46.231 73.604 46.179 73.663 46.128 C 73.87 45.966 74.069 45.796 74.261 45.619 L 74.548 45.353 C 74.652 45.272 74.74 45.176 74.829 45.088 Z" style="stroke-width: 1; fill: rgb(0, 128, 128);"/><path d="M 67.861 80.74 C 67.761 80.699 67.657 80.672 67.551 80.659 L 60.69 80.659 C 60.586 80.674 60.483 80.696 60.38 80.74 C 59.76 80.991 59.413 81.64 59.708 82.319 C 60.003 83.005 61.368 84.931 64.12 84.931 C 66.872 84.931 68.237 83.005 68.532 82.319 C 68.82 81.633 68.48 80.991 67.861 80.74 Z" fill="#DBA689" style="stroke-width: 1;"/><path d="M 47.976 81.419 C 50.616 81.419 52.757 79.203 52.757 76.469 C 52.757 73.735 50.616 71.518 47.976 71.518 C 45.336 71.518 43.195 73.735 43.195 76.469 C 43.195 79.203 45.336 81.419 47.976 81.419 Z" fill="#312D2D" style="stroke-width: 1;"/><path d="M 80.23 81.419 C 82.87 81.419 85.011 79.203 85.011 76.469 C 85.011 73.735 82.87 71.518 80.23 71.518 C 77.59 71.518 75.449 73.735 75.449 76.469 C 75.449 79.203 77.59 81.419 80.23 81.419 Z" fill="#312D2D" style="stroke-width: 1;"/><path d="M 70.992 91.021 C 68.336 92.6 59.63 92.6 56.982 91.021 C 55.454 90.114 53.898 91.501 54.532 92.888 C 55.152 94.253 59.903 97.41 64.012 97.41 C 68.114 97.41 72.806 94.253 73.426 92.888 C 74.053 91.501 72.511 90.114 70.992 91.021 Z" fill="#444444" style="stroke-width: 1;"/></svg>